HIERARCHY
ROOT Hips
{
	OFFSET 0.000000 0.000000 0.000000
	CHANNELS 6 Xposition Yposition Zposition Xrotation Yrotation Zrotation
	JOINT LeftUpLeg_virtual
	{
		OFFSET 0.000000 0.000000 0.000000
		CHANNELS 3 Xrotation Yrotation Zrotation
		JOINT LeftUpLeg
		{
			OFFSET 11.394100 -6.187798 -0.413800
			CHANNELS 3 Xrotation Yrotation Zrotation
			JOINT LeftLeg
			{
				OFFSET 0.430247 -32.302673 3.732800
				CHANNELS 3 Xrotation Yrotation Zrotation
				JOINT LeftFoot
				{
					OFFSET -0.430247 -48.264931 -6.423300
					CHANNELS 3 Xrotation Yrotation Zrotation
					JOINT LeftToeBase
					{
						OFFSET 4.230900 -16.068199 23.438400
						CHANNELS 3 Xrotation Yrotation Zrotation
						JOINT LeftToe_End
						{
							OFFSET 4.510700 0.695400 19.974600
							CHANNELS 3 Xrotation Yrotation Zrotation
							End Site
							{
								OFFSET 0 0 0
							}
						}
					}
				}
			}
		}
	}
	JOINT RightUpLeg_virtual
	{
		OFFSET 0.000000 0.000000 0.000000
		CHANNELS 3 Xrotation Yrotation Zrotation
		JOINT RightUpLeg
		{
			OFFSET -11.333700 -6.187798 -0.413800
			CHANNELS 3 Xrotation Yrotation Zrotation
			JOINT RightLeg
			{
				OFFSET -0.430392 -32.302628 3.733000
				CHANNELS 3 Xrotation Yrotation Zrotation
				JOINT RightFoot
				{
					OFFSET 0.430392 -48.264973 -6.423500
					CHANNELS 3 Xrotation Yrotation Zrotation
					JOINT RightToeBase
					{
						OFFSET -4.230900 -16.068199 23.438400
						CHANNELS 3 Xrotation Yrotation Zrotation
						JOINT RightToe_End
						{
							OFFSET -4.510700 0.695400 19.974600
							CHANNELS 3 Xrotation Yrotation Zrotation
							End Site
							{
								OFFSET 0 0 0
							}
						}
					}
				}
			}
		}
	}
	JOINT Spine_virtual
	{
		OFFSET 0.000000 0.000000 0.000000
		CHANNELS 3 Xrotation Yrotation Zrotation
		JOINT Spine
		{
			OFFSET -0.002400 12.777504 0.315300
			CHANNELS 3 Xrotation Yrotation Zrotation
			JOINT Spine1
			{
				OFFSET -0.002067 5.816869 0.032633
				CHANNELS 3 Xrotation Yrotation Zrotation
				JOINT Spine1_split
				{
					OFFSET -0.002067 5.816869 0.032633
					CHANNELS 3 Xrotation Yrotation Zrotation
					JOINT Spine2
					{
						OFFSET -0.002067 5.816869 0.032633
						CHANNELS 3 Xrotation Yrotation Zrotation
						JOINT Neck_virtual
						{
							OFFSET 0.000000 0.000000 0.000000
							CHANNELS 3 Xrotation Yrotation Zrotation
							JOINT Neck
							{
								OFFSET -0.003700 21.199493 -0.826900
								CHANNELS 3 Xrotation Yrotation Zrotation
								JOINT Head
								{
									OFFSET 0.000000 20.442200 4.834800
									CHANNELS 3 Xrotation Yrotation Zrotation
									JOINT HeadTop_End
									{
										OFFSET 0.000000 34.668396 4.968400
										CHANNELS 3 Xrotation Yrotation Zrotation
										End Site
										{
											OFFSET 0 0 0
										}
									}
								}
							}
						}
						JOINT LeftShoulder_virtual
						{
							OFFSET 0.000000 0.000000 0.000000
							CHANNELS 3 Xrotation Yrotation Zrotation
							JOINT LeftShoulder
							{
								OFFSET 3.288150 8.794197 -1.372250
								CHANNELS 3 Xrotation Yrotation Zrotation
								JOINT LeftShoulder_split
								{
									OFFSET 3.288150 8.794197 -1.372250
									CHANNELS 3 Xrotation Yrotation Zrotation
									JOINT LeftArm
									{
										OFFSET 11.953299 -2.279007 -0.146200
										CHANNELS 3 Xrotation Yrotation Zrotation
										JOINT LeftForeArm
										{
											OFFSET 18.448900 0.000000 0.000000
											CHANNELS 3 Xrotation Yrotation Zrotation
											JOINT LeftHand
											{
												OFFSET 29.527798 0.000000 0.000000
												CHANNELS 3 Xrotation Yrotation Zrotation
												End Site
												{
													OFFSET 0 0 0
												}
											}
										}
									}
								}
							}
						}
						JOINT RightShoulder_virtual
						{
							OFFSET 0.000000 0.000000 0.000000
							CHANNELS 3 Xrotation Yrotation Zrotation
							JOINT RightShoulder
							{
								OFFSET -3.249400 8.794197 -1.372250
								CHANNELS 3 Xrotation Yrotation Zrotation
								JOINT RightShoulder_split
								{
									OFFSET -3.249400 8.794197 -1.372250
									CHANNELS 3 Xrotation Yrotation Zrotation
									JOINT RightArm
									{
										OFFSET -11.953299 -2.279007 -0.146200
										CHANNELS 3 Xrotation Yrotation Zrotation
										JOINT RightForeArm
										{
											OFFSET -18.448900 0.000000 0.000000
											CHANNELS 3 Xrotation Yrotation Zrotation
											JOINT RightHand
											{
												OFFSET -29.527802 0.000000 0.000000
												CHANNELS 3 Xrotation Yrotation Zrotation
												End Site
												{
													OFFSET 0 0 0
												}
											}
										}
									}
								}
							}
						}
					}
				}
			}
		}
	}
}
MOTION
Frames: 11
Frame Time: 0.03333333
-0.033105 99.439392 -2.224770 0.000000 0.000000 0.000000 3.443940 -32.268440 2.245415 -20.332580 14.705114 15.742357 23.202216 13.454132 -3.654059 -4.193122 -3.689085 -6.474302 2.708051 0.044986 -0.741096 0.000000 0.000000 0.000000 3.980464 -31.617772 2.300220 -24.062876 0.407466 -8.858639 20.395852 6.378860 -1.914978 0.280241 -1.096604 4.718721 -2.182071 0.057332 0.472353 0.000000 0.000000 0.000000 3.510898 -30.906473 1.420199 7.509843 -0.087706 -1.241609 1.219002 -0.870698 2.373776 0.446007 0.362883 0.572834 0.000000 0.000000 0.000000 1.048642 -0.398246 2.545454 -4.565276 17.716536 -7.072511 -5.924838 15.261477 0.474386 0.000000 0.000000 0.000000 1.137496 -0.642488 2.629244 0.970849 -10.224211 0.452183 1.462296 -0.028678 0.269651 -59.743979 1.361658 -39.329315 9.719975 -60.254406 11.979420 0.000000 0.000000 0.000000 0.761692 -0.519615 2.665146 4.769077 6.196953 7.321147 -0.737777 -0.148965 -1.687783 0.040362 0.609438 63.298027 12.419189 23.349773 -3.787828 0.000000 0.000000 0.000000 
-0.058143 99.437508 -2.160206 0.000000 0.000000 0.000000 3.556337 -32.230577 2.273102 -20.400783 14.670471 15.737661 23.189561 13.453763 -3.599467 -4.216851 -3.662881 -6.509998 2.661792 0.045135 -0.740775 0.000000 0.000000 0.000000 4.096700 -31.548845 2.314739 -24.081492 0.518302 -8.840822 20.466699 6.424697 -1.927701 0.350822 -1.056856 4.795570 -2.229222 0.025259 0.481591 0.000000 0.000000 0.000000 3.633971 -30.843461 1.444646 7.477687 -0.086442 -1.264247 1.200785 -0.886719 2.377616 0.508413 0.318104 0.646313 0.000000 0.000000 0.000000 1.043544 -0.403701 2.564699 -4.516940 17.865084 -7.128674 -5.903842 15.312268 0.480644 0.000000 0.000000 0.000000 1.117422 -0.644989 2.644651 0.947853 -10.114199 0.333730 1.550356 -0.114893 0.342433 -59.667228 1.423736 -39.252469 9.881970 -60.262643 12.055490 0.000000 0.000000 0.000000 0.761251 -0.521779 2.674977 4.716865 6.250608 7.465563 -0.910920 -0.212493 -1.655393 0.119362 0.651044 63.271089 12.404598 23.141835 -3.780900 0.000000 0.000000 0.000000 
-0.097825 99.433502 -2.112129 0.000000 0.000000 0.000000 3.753295 -32.137679 2.321066 -20.534119 14.536693 15.723649 23.185226 13.456122 -3.564551 -4.260414 -3.623269 -6.545211 2.620640 0.044055 -0.729466 0.000000 0.000000 0.000000 4.278115 -31.475410 2.352997 -24.109545 0.575402 -8.817271 20.519101 6.436842 -1.933630 0.318300 -1.042053 4.820695 -2.205041 -0.002736 0.498412 0.000000 0.000000 0.000000 3.863205 -30.761331 1.503058 7.444289 -0.077252 -1.289637 1.169607 -0.877584 2.377618 0.540958 0.236829 0.686706 0.000000 0.000000 0.000000 1.039158 -0.382437 2.572939 -4.416941 18.179272 -7.228253 -5.963236 15.529584 0.567813 0.000000 0.000000 0.000000 1.098110 -0.620535 2.647997 0.917782 -9.924228 0.210582 1.626131 -0.135835 0.442078 -59.647530 1.488230 -39.198189 9.958885 -60.363238 12.053241 0.000000 0.000000 0.000000 0.753193 -0.500437 2.674286 4.675241 6.319593 7.628847 -1.009440 -0.281023 -1.690030 0.211491 0.667224 63.250591 12.357519 22.930164 -3.786815 0.000000 0.000000 0.000000 
-0.150102 99.424873 -2.075119 0.000000 0.000000 0.000000 4.010001 -31.962929 2.381335 -20.743033 14.324619 15.706937 23.190123 13.471766 -3.558680 -4.311947 -3.574921 -6.557361 2.628720 0.041548 -0.717963 0.000000 0.000000 0.000000 4.509800 -31.373292 2.409600 -24.153873 0.580880 -8.794711 20.526578 6.428502 -1.935350 0.202436 -1.039125 4.822370 -2.131342 -0.019845 0.510174 0.000000 0.000000 0.000000 4.166651 -30.651550 1.588357 7.408446 -0.060881 -1.307353 1.125895 -0.843915 2.372151 0.493182 0.149743 0.679305 0.000000 0.000000 0.000000 1.031756 -0.339910 2.572922 -4.255573 18.668691 -7.407707 -6.119217 15.928305 0.704692 0.000000 0.000000 0.000000 1.081762 -0.575402 2.640333 0.889039 -9.681807 0.107532 1.680870 -0.047284 0.574321 -59.703442 1.551940 -39.198886 9.928588 -60.474686 11.956046 0.000000 0.000000 0.000000 0.739654 -0.459499 2.664789 4.643080 6.413370 7.779638 -1.019998 -0.315901 -1.791150 0.304162 0.674154 63.260563 12.287724 22.701751 -3.802793 0.000000 0.000000 0.000000 
-0.214969 99.416321 -2.051548 0.000000 0.000000 0.000000 4.300965 -31.697928 2.447149 -21.032685 14.047192 15.691641 23.200286 13.513175 -3.589311 -4.351035 -3.522500 -6.533028 2.689779 0.039870 -0.703767 0.000000 0.000000 0.000000 4.784105 -31.187498 2.479979 -24.193563 0.543803 -8.774869 20.492528 6.420187 -1.937016 0.007639 -1.033127 4.822188 -2.067339 -0.025390 0.513826 0.000000 0.000000 0.000000 4.518781 -30.480730 1.689900 7.364329 -0.040160 -1.312874 1.077458 -0.792119 2.360255 0.424351 0.038271 0.680252 0.000000 0.000000 0.000000 1.019640 -0.282837 2.565332 -4.016649 19.344595 -7.714861 -6.380280 16.526093 0.861855 0.000000 0.000000 0.000000 1.070226 -0.516378 2.626574 0.870115 -9.415174 0.037927 1.710334 0.113604 0.711086 -59.850789 1.646900 -39.279991 9.794308 -60.536793 11.765192 0.000000 0.000000 0.000000 0.727404 -0.405342 2.649222 4.618951 6.533973 7.885924 -0.981544 -0.294401 -1.923944 0.405450 0.660836 63.310786 12.205378 22.474883 -3.825152 0.000000 0.000000 0.000000 
-0.297071 99.406891 -2.040600 0.000000 0.000000 0.000000 4.612376 -31.336058 2.518818 -21.384072 13.720964 15.676806 23.203254 13.573748 -3.656854 -4.345399 -3.482347 -6.476664 2.761653 0.038311 -0.672106 0.000000 0.000000 0.000000 5.075146 -30.880146 2.553776 -24.207994 0.463356 -8.754878 20.425662 6.411619 -1.942560 -0.264661 -1.028712 4.809277 -2.020656 -0.022137 0.515806 0.000000 0.000000 0.000000 4.883039 -30.219810 1.796494 7.305311 -0.015747 -1.306404 1.030971 -0.730920 2.340548 0.359943 -0.113987 0.710929 0.000000 0.000000 0.000000 1.003552 -0.217868 2.551747 -3.679252 20.208961 -8.197257 -6.744254 17.350982 1.001374 0.000000 0.000000 0.000000 1.070277 -0.451016 2.610946 0.865662 -9.154606 0.017982 1.725569 0.234852 0.794913 -60.125786 1.768241 -39.475915 9.587105 -60.541738 11.508305 0.000000 0.000000 0.000000 0.721834 -0.344980 2.629723 4.601248 6.680823 7.924013 -0.908168 -0.247378 -2.046549 0.504867 0.586853 63.408102 12.122764 22.274828 -3.852919 0.000000 0.000000 0.000000 
-0.396367 99.394302 -2.031834 0.000000 0.000000 0.000000 4.923698 -30.865092 2.595641 -21.785462 13.350078 15.663871 23.194822 13.644411 -3.755220 -4.273400 -3.470570 -6.401188 2.810502 0.034932 -0.618209 0.000000 0.000000 0.000000 5.357852 -30.451159 2.620376 -24.196128 0.321494 -8.733366 20.367609 6.379017 -1.953828 -0.609615 -1.048798 4.753009 -1.958357 -0.016802 0.530101 0.000000 0.000000 0.000000 5.242122 -29.847766 1.900213 7.229922 0.013189 -1.292923 0.996522 -0.669356 2.310228 0.324186 -0.255236 0.757341 0.000000 0.000000 0.000000 0.994784 -0.151861 2.533565 -3.220514 21.262020 -8.881189 -7.205269 18.398163 1.105562 0.000000 0.000000 0.000000 1.081779 -0.384175 2.594260 0.875658 -8.923270 0.036530 1.739590 0.269127 0.847695 -60.536008 1.899675 -39.794615 9.374742 -60.527927 11.243314 0.000000 0.000000 0.000000 0.718864 -0.284558 2.605730 4.591168 6.844502 7.894141 -0.807117 -0.205430 -2.125829 0.608357 0.406942 63.536052 12.049030 22.144894 -3.879690 0.000000 0.000000 0.000000 
-0.504728 99.380844 -2.019779 0.000000 0.000000 0.000000 5.217705 -30.276111 2.665869 -22.231504 12.942684 15.654724 23.185296 13.703152 -3.875882 -4.129209 -3.506950 -6.320418 2.844009 0.026278 -0.543261 0.000000 0.000000 0.000000 5.615409 -29.902814 2.672778 -24.158038 0.091565 -8.716682 20.363676 6.308212 -1.967815 -1.018307 -1.110241 4.636814 -1.872595 -0.019066 0.563213 0.000000 0.000000 0.000000 5.581554 -29.351563 1.995247 7.139602 0.046984 -1.278282 0.979103 -0.610644 2.270407 0.318220 -0.358047 0.821175 0.000000 0.000000 0.000000 1.005398 -0.088507 2.512106 -2.616793 22.483917 -9.773798 -7.750958 19.635732 1.168127 0.000000 0.000000 0.000000 1.102516 -0.316292 2.579213 0.895724 -8.727815 0.073288 1.745871 0.285942 0.840518 -61.036667 2.040797 -40.185708 9.195718 -60.523659 11.004827 0.000000 0.000000 0.000000 0.713916 -0.231333 2.576848 4.586553 7.023192 7.805106 -0.688412 -0.193418 -2.175950 0.753504 0.109645 63.658920 11.997726 22.090717 -3.900160 0.000000 0.000000 0.000000 
-0.617812 99.366364 -2.004398 0.000000 0.000000 0.000000 5.486678 -29.561072 2.721528 -22.715894 12.508869 15.649813 23.189542 13.728165 -4.013425 -3.934625 -3.611729 -6.244952 2.884703 0.009437 -0.457875 0.000000 0.000000 0.000000 5.839332 -29.240159 2.707855 -24.089299 -0.240839 -8.713978 20.432851 6.197168 -1.979376 -1.485072 -1.212064 4.469362 -1.774204 -0.032832 0.606440 0.000000 0.000000 0.000000 5.894921 -28.725843 2.075527 7.040063 0.090350 -1.266072 0.978541 -0.554102 2.225407 0.338437 -0.437160 0.833963 0.000000 0.000000 0.000000 1.030054 -0.028603 2.487786 -1.868127 23.823568 -10.857527 -8.356724 20.993145 1.197320 0.000000 0.000000 0.000000 1.127540 -0.246079 2.567294 0.922044 -8.565110 0.110610 1.784741 0.332081 0.801311 -61.530640 2.187917 -40.556062 9.078162 -60.526227 10.816217 0.000000 0.000000 0.000000 0.708687 -0.183390 2.544202 4.581220 7.219918 7.665016 -0.553534 -0.207128 -2.210811 0.978119 -0.265482 63.748929 11.976795 22.088070 -3.919622 0.000000 0.000000 0.000000 
-0.736678 99.343636 -1.987381 0.000000 0.000000 0.000000 5.731251 -28.718978 2.759239 -23.248386 12.034649 15.647274 23.211715 13.707929 -4.162558 -3.709785 -3.786245 -6.192906 2.940977 -0.012602 -0.362218 0.000000 0.000000 0.000000 6.035001 -28.456947 2.726736 -23.980758 -0.675326 -8.732081 20.562978 6.051956 -1.985280 -2.008693 -1.336978 4.260845 -1.671650 -0.051654 0.645178 0.000000 0.000000 0.000000 6.182958 -27.976848 2.140311 6.931139 0.149292 -1.260457 0.987781 -0.497444 2.179431 0.360840 -0.501201 0.823390 0.000000 0.000000 0.000000 1.060880 0.032843 2.465094 -0.999816 25.217468 -12.104128 -8.989191 22.398192 1.214064 0.000000 0.000000 0.000000 1.155639 -0.167183 2.558469 0.946850 -8.421395 0.111569 1.840753 0.404810 0.779244 -61.919763 2.371533 -40.792140 9.030929 -60.543521 10.682929 0.000000 0.000000 0.000000 0.704528 -0.133803 2.514469 4.572809 7.447348 7.489148 -0.430502 -0.203077 -2.221289 1.301320 -0.653102 63.784732 11.990637 22.116496 -3.945621 0.000000 0.000000 0.000000 
-0.867726 99.306480 -1.967121 0.000000 0.000000 0.000000 5.949160 -27.754515 2.778656 -23.826867 11.516110 15.648071 23.268721 13.650800 -4.324981 -3.465769 -4.013079 -6.158928 3.004150 -0.037937 -0.259753 0.000000 0.000000 0.000000 6.207423 -27.561319 2.731781 -23.815485 -1.201216 -8.772019 20.717661 5.887237 -1.984231 -2.581247 -1.467814 4.028437 -1.537793 -0.067761 0.667401 0.000000 0.000000 0.000000 6.443609 -27.108719 2.188591 6.812919 0.229108 -1.264481 1.003007 -0.432257 2.138317 0.394338 -0.571075 0.812313 0.000000 0.000000 0.000000 1.087013 0.104129 2.448249 -0.047476 26.594484 -13.476491 -9.630600 23.773537 1.242656 0.000000 0.000000 0.000000 1.186042 -0.075669 2.554784 0.961303 -8.267528 0.044195 1.908171 0.475118 0.775499 -62.152030 2.621303 -40.816732 9.041800 -60.637675 10.597620 0.000000 0.000000 0.000000 0.705238 -0.071664 2.491592 4.558676 7.713477 7.287696 -0.311171 -0.159636 -2.206004 1.707564 -1.012384 63.759433 12.032260 22.156471 -3.986816 0.000000 0.000000 0.000000 
